<svg version="1.0" viewBox="0 0 300 300" xmlns="http://www.w3.org/2000/svg">
    <style>@font-face {
        font-family: Shez;
        src: url("shez.ttf")
    } svg {user-select:none;}</style>
    <circle r="50%" cx="50%" cy="50%" fill="white"/>
    <circle r="47.77778%" cx="50%" cy="50%" fill="#1A293E"/>
    <circle r="44.44444%" cx="50%" cy="50%" fill="white"/>
    <circle r="35.41667%" cx="50%" cy="50%" fill="#1A293E"/>
    <circle r="26.38889%" cx="50%" cy="50%" fill="white"/>
    <circle r="20.83333%" cx="50%" cy="50%" fill="#1A293E"/>
    <path id="programpath" d="M 37 150 A 50 50 0 0 1 263 150" fill="transparent"/>
    <text fill="#1A293E" style=" font-size: 19.9px;" letter-spacing="6">
        <textPath style="font-family: helvetica; font-weight:700;" href="#programpath" startOffset="51%" text-anchor="middle">TEKNIKPROGRAMMET</textPath>
    </text>
    <path id="citypath" d="M 23 150 A 50 50 0 0 0 277 150" fill="transparent"/>
    <text fill="#1A293E" style=" font-size: 19.9px;" letter-spacing="10">
        <textPath style="font-family: helvetica; font-weight:700;" href="#citypath" startOffset="51%" text-anchor="middle">SKELLEFTEÅ</textPath>
    </text>
    <text x="151" y="176" text-anchor="middle" style="font:90px Shez; font-weight:;" fill="white">TE</text>
    <g transform-origin="150 150">
        <animateTransform attributeName="transform" begin="0s" dur="30s" type="rotate" from="0" to="360" repeatCount="indefinite"/>
        <g><path d="M 137 59 A 10 1 0 0 1 162 59 L167 75 L131.5 75" fill="rgb(255,255,255)"/></g>
        <g transform="translate(150 -62) rotate(45)"><path d="M 137 59 A 10 1 0 0 1 162 59 L167 75 L131.5 75" fill="rgb(255,255,255)"/></g>
        <g transform="translate(300) rotate(90)"><path d="M 137 59 A 10 1 0 0 1 162 59 L167 75 L131.5 75" fill="rgb(255,255,255)"/></g>
        <g transform="translate(361 150) rotate(135)"><path d="M 137 59 A 10 1 0 0 1 162 59 L167 75 L131.5 75" fill="rgb(255,255,255)"/></g>
        <g transform="translate(300 300) rotate(180)"><path d="M 137 59 A 10 1 0 0 1 162 59 L167 75 L131.5 75" fill="rgb(255,255,255)"/></g>
        <g transform="translate(150 361) rotate(225)"><path d="M 137 59 A 10 1 0 0 1 162 59 L167 75 L131.5 75" fill="rgb(255,255,255)"/></g>
        <g transform="translate(0 300) rotate(270)"><path d="M 137 59 A 10 1 0 0 1 162 59 L167 75 L131.5 75" fill="rgb(255,255,255)"/></g>
        <g transform="translate(-62 150) rotate(315)"><path d="M 137 59 A 10 1 0 0 1 162 59 L167 75 L131.5 75" fill="rgb(255,255,255)"/></g>
    </g>
</svg>